{
    "asset" : {
        "generator" : "Khronos glTF Blender I/O v1.8.19",
        "version" : "2.0"
    },
    "scene" : 0,
    "scenes" : [
        {
            "name" : "Scene",
            "nodes" : [
                0
            ]
        }
    ],
    "nodes" : [
        {
            "mesh" : 0,
            "name" : "Text",
            "rotation" : [
                0.7071068286895752,
                0,
                0,
                0.7071068286895752
            ],
            "scale" : [
                2.2397031784057617,
                2.2397031784057617,
                2.2397031784057617
            ]
        }
    ],
    "meshes" : [
        {
            "name" : "Text",
            "primitives" : [
                {
                    "attributes" : {
                        "POSITION" : 0,
                        "NORMAL" : 1
                    },
                    "indices" : 2
                }
            ]
        }
    ],
    "accessors" : [
        {
            "bufferView" : 0,
            "componentType" : 5126,
            "count" : 21730,
            "max" : [
                -1.088134527206421,
                0.18339015543460846,
                0.039635542780160904
            ],
            "min" : [
                -1.5584105253219604,
                -0.18249212205410004,
                -0.544316291809082
            ],
            "type" : "VEC3"
        },
        {
            "bufferView" : 1,
            "componentType" : 5126,
            "count" : 21730,
            "type" : "VEC3"
        },
        {
            "bufferView" : 2,
            "componentType" : 5123,
            "count" : 130368,
            "type" : "SCALAR"
        }
    ],
    "bufferViews" : [
        {
            "buffer" : 0,
            "byteLength" : 260760,
            "byteOffset" : 0
        },
        {
            "buffer" : 0,
            "byteLength" : 260760,
            "byteOffset" : 260760
        },
        {
            "buffer" : 0,
            "byteLength" : 260736,
            "byteOffset" : 521520
        }
    ],
    "buffers" : [
        {
            "byteLength" : 782256,
            "uri" : "L.bin"
        }
    ]
}
