{
    "asset" : {
        "generator" : "Khronos glTF Blender I/O v1.8.19",
        "version" : "2.0"
    },
    "scene" : 0,
    "scenes" : [
        {
            "name" : "Scene",
            "nodes" : [
                0
            ]
        }
    ],
    "nodes" : [
        {
            "mesh" : 0,
            "name" : "Text.001",
            "rotation" : [
                0.7071068286895752,
                0,
                0,
                0.7071068286895752
            ],
            "scale" : [
                2.2397031784057617,
                2.2397031784057617,
                2.2397031784057617
            ]
        }
    ],
    "meshes" : [
        {
            "name" : "Text.001",
            "primitives" : [
                {
                    "attributes" : {
                        "POSITION" : 0,
                        "NORMAL" : 1
                    },
                    "indices" : 2
                }
            ]
        }
    ],
    "accessors" : [
        {
            "bufferView" : 0,
            "componentType" : 5126,
            "count" : 32794,
            "max" : [
                -0.45551204681396484,
                0.18021494150161743,
                0.04175318405032158
            ],
            "min" : [
                -1.0282682180404663,
                -0.18002276122570038,
                -0.5447543263435364
            ],
            "type" : "VEC3"
        },
        {
            "bufferView" : 1,
            "componentType" : 5126,
            "count" : 32794,
            "type" : "VEC3"
        },
        {
            "bufferView" : 2,
            "componentType" : 5123,
            "count" : 196752,
            "type" : "SCALAR"
        }
    ],
    "bufferViews" : [
        {
            "buffer" : 0,
            "byteLength" : 393528,
            "byteOffset" : 0
        },
        {
            "buffer" : 0,
            "byteLength" : 393528,
            "byteOffset" : 393528
        },
        {
            "buffer" : 0,
            "byteLength" : 393504,
            "byteOffset" : 787056
        }
    ],
    "buffers" : [
        {
            "byteLength" : 1180560,
            "uri" : "U.bin"
        }
    ]
}
