{
    "asset" : {
        "generator" : "Khronos glTF Blender I/O v1.8.19",
        "version" : "2.0"
    },
    "scene" : 0,
    "scenes" : [
        {
            "name" : "Scene",
            "nodes" : [
                0
            ]
        }
    ],
    "nodes" : [
        {
            "mesh" : 0,
            "name" : "Text",
            "rotation" : [
                0.7071068286895752,
                0,
                0,
                0.7071068286895752
            ]
        }
    ],
    "meshes" : [
        {
            "name" : "Text",
            "primitives" : [
                {
                    "attributes" : {
                        "POSITION" : 0,
                        "NORMAL" : 1
                    },
                    "indices" : 2
                }
            ]
        }
    ],
    "accessors" : [
        {
            "bufferView" : 0,
            "componentType" : 5126,
            "count" : 17154,
            "max" : [
                0.2570949196815491,
                0.12063674628734589,
                0.03776537999510765
            ],
            "min" : [
                -0.256755530834198,
                -0.12083545327186584,
                -0.6559370756149292
            ],
            "type" : "VEC3"
        },
        {
            "bufferView" : 1,
            "componentType" : 5126,
            "count" : 17154,
            "type" : "VEC3"
        },
        {
            "bufferView" : 2,
            "componentType" : 5123,
            "count" : 44496,
            "type" : "SCALAR"
        }
    ],
    "bufferViews" : [
        {
            "buffer" : 0,
            "byteLength" : 205848,
            "byteOffset" : 0
        },
        {
            "buffer" : 0,
            "byteLength" : 205848,
            "byteOffset" : 205848
        },
        {
            "buffer" : 0,
            "byteLength" : 88992,
            "byteOffset" : 411696
        }
    ],
    "buffers" : [
        {
            "byteLength" : 500688,
            "uri" : "E.bin"
        }
    ]
}
