{
    "asset" : {
        "generator" : "Khronos glTF Blender I/O v1.8.19",
        "version" : "2.0"
    },
    "scene" : 0,
    "scenes" : [
        {
            "name" : "Scene",
            "nodes" : [
                0
            ]
        }
    ],
    "nodes" : [
        {
            "mesh" : 0,
            "name" : "Text",
            "rotation" : [
                0.7071068286895752,
                0,
                0,
                0.7071068286895752
            ]
        }
    ],
    "meshes" : [
        {
            "name" : "Text",
            "primitives" : [
                {
                    "attributes" : {
                        "POSITION" : 0,
                        "NORMAL" : 1
                    },
                    "indices" : 2
                }
            ]
        }
    ],
    "accessors" : [
        {
            "bufferView" : 0,
            "componentType" : 5126,
            "count" : 23456,
            "max" : [
                0.2807384729385376,
                0.12615139782428741,
                0.01290422584861517
            ],
            "min" : [
                -0.28496524691581726,
                -0.12640291452407837,
                -0.6323704123497009
            ],
            "type" : "VEC3"
        },
        {
            "bufferView" : 1,
            "componentType" : 5126,
            "count" : 23456,
            "type" : "VEC3"
        },
        {
            "bufferView" : 2,
            "componentType" : 5123,
            "count" : 46980,
            "type" : "SCALAR"
        }
    ],
    "bufferViews" : [
        {
            "buffer" : 0,
            "byteLength" : 281472,
            "byteOffset" : 0
        },
        {
            "buffer" : 0,
            "byteLength" : 281472,
            "byteOffset" : 281472
        },
        {
            "buffer" : 0,
            "byteLength" : 93960,
            "byteOffset" : 562944
        }
    ],
    "buffers" : [
        {
            "byteLength" : 656904,
            "uri" : "K.bin"
        }
    ]
}
