{
    "asset" : {
        "generator" : "Khronos glTF Blender I/O v1.8.19",
        "version" : "2.0"
    },
    "scene" : 0,
    "scenes" : [
        {
            "name" : "Scene",
            "nodes" : [
                0
            ]
        }
    ],
    "nodes" : [
        {
            "mesh" : 0,
            "name" : "Text",
            "rotation" : [
                0.7071068286895752,
                0,
                0,
                0.7071068286895752
            ]
        }
    ],
    "meshes" : [
        {
            "name" : "Text",
            "primitives" : [
                {
                    "attributes" : {
                        "POSITION" : 0,
                        "NORMAL" : 1,
                        "COLOR_0" : 2
                    },
                    "indices" : 3
                }
            ]
        }
    ],
    "accessors" : [
        {
            "bufferView" : 0,
            "componentType" : 5126,
            "count" : 19138,
            "max" : [
                0.3011491894721985,
                0.11374979466199875,
                0.04058780521154404
            ],
            "min" : [
                -0.3013176918029785,
                -0.11382372677326202,
                -0.6322685480117798
            ],
            "type" : "VEC3"
        },
        {
            "bufferView" : 1,
            "componentType" : 5126,
            "count" : 19138,
            "type" : "VEC3"
        },
        {
            "bufferView" : 2,
            "componentType" : 5123,
            "count" : 19138,
            "normalized" : true,
            "type" : "VEC4"
        },
        {
            "bufferView" : 3,
            "componentType" : 5123,
            "count" : 42492,
            "type" : "SCALAR"
        }
    ],
    "bufferViews" : [
        {
            "buffer" : 0,
            "byteLength" : 229656,
            "byteOffset" : 0
        },
        {
            "buffer" : 0,
            "byteLength" : 229656,
            "byteOffset" : 229656
        },
        {
            "buffer" : 0,
            "byteLength" : 153104,
            "byteOffset" : 459312
        },
        {
            "buffer" : 0,
            "byteLength" : 84984,
            "byteOffset" : 612416
        }
    ],
    "buffers" : [
        {
            "byteLength" : 697400,
            "uri" : "U.bin"
        }
    ]
}
