{
    "asset" : {
        "generator" : "Khronos glTF Blender I/O v1.8.19",
        "version" : "2.0"
    },
    "scene" : 0,
    "scenes" : [
        {
            "name" : "Scene",
            "nodes" : [
                0
            ]
        }
    ],
    "nodes" : [
        {
            "mesh" : 0,
            "name" : "Text",
            "rotation" : [
                0.7071068286895752,
                0,
                0,
                0.7071068286895752
            ]
        }
    ],
    "meshes" : [
        {
            "name" : "Text",
            "primitives" : [
                {
                    "attributes" : {
                        "POSITION" : 0,
                        "NORMAL" : 1
                    },
                    "indices" : 2
                }
            ]
        }
    ],
    "accessors" : [
        {
            "bufferView" : 0,
            "componentType" : 5126,
            "count" : 10356,
            "max" : [
                0.24569116532802582,
                0.11252982169389725,
                0.05176381394267082
            ],
            "min" : [
                -0.24195876717567444,
                -0.11073365062475204,
                -0.6323753595352173
            ],
            "type" : "VEC3"
        },
        {
            "bufferView" : 1,
            "componentType" : 5126,
            "count" : 10356,
            "type" : "VEC3"
        },
        {
            "bufferView" : 2,
            "componentType" : 5123,
            "count" : 27720,
            "type" : "SCALAR"
        }
    ],
    "bufferViews" : [
        {
            "buffer" : 0,
            "byteLength" : 124272,
            "byteOffset" : 0
        },
        {
            "buffer" : 0,
            "byteLength" : 124272,
            "byteOffset" : 124272
        },
        {
            "buffer" : 0,
            "byteLength" : 55440,
            "byteOffset" : 248544
        }
    ],
    "buffers" : [
        {
            "byteLength" : 303984,
            "uri" : "L.bin"
        }
    ]
}
