{
    "asset" : {
        "generator" : "Khronos glTF Blender I/O v1.8.19",
        "version" : "2.0"
    },
    "scene" : 0,
    "scenes" : [
        {
            "name" : "Scene",
            "nodes" : [
                0
            ]
        }
    ],
    "nodes" : [
        {
            "mesh" : 0,
            "name" : "Text",
            "rotation" : [
                0.7071068286895752,
                0,
                0,
                0.7071068286895752
            ]
        }
    ],
    "meshes" : [
        {
            "name" : "Text",
            "primitives" : [
                {
                    "attributes" : {
                        "POSITION" : 0,
                        "NORMAL" : 1
                    },
                    "indices" : 2
                }
            ]
        }
    ],
    "accessors" : [
        {
            "bufferView" : 0,
            "componentType" : 5126,
            "count" : 28658,
            "max" : [
                0.3133706748485565,
                0.11075181514024734,
                0.045357197523117065
            ],
            "min" : [
                -0.3309943377971649,
                -0.11178287863731384,
                -0.6628676056861877
            ],
            "type" : "VEC3"
        },
        {
            "bufferView" : 1,
            "componentType" : 5126,
            "count" : 28658,
            "type" : "VEC3"
        },
        {
            "bufferView" : 2,
            "componentType" : 5123,
            "count" : 53112,
            "type" : "SCALAR"
        }
    ],
    "bufferViews" : [
        {
            "buffer" : 0,
            "byteLength" : 343896,
            "byteOffset" : 0
        },
        {
            "buffer" : 0,
            "byteLength" : 343896,
            "byteOffset" : 343896
        },
        {
            "buffer" : 0,
            "byteLength" : 106224,
            "byteOffset" : 687792
        }
    ],
    "buffers" : [
        {
            "byteLength" : 794016,
            "uri" : "G.bin"
        }
    ]
}
