{
    "asset" : {
        "generator" : "Khronos glTF Blender I/O v1.3.48",
        "version" : "2.0"
    },
    "scene" : 0,
    "scenes" : [
        {
            "name" : "Scene",
            "nodes" : [
                6,
                7,
                8
            ]
        }
    ],
    "nodes" : [
        {
            "mesh" : 0,
            "name" : "Sphere_Material.001_0"
        },
        {
            "children" : [
                0
            ],
            "name" : "Sphere",
            "rotation" : [
                -0.5,
                0.4999999403953552,
                -0.5,
                0.5000000596046448
            ],
            "scale" : [
                100,
                100,
                100
            ]
        },
        {
            "mesh" : 1,
            "name" : "Sphere.001_Material.002_0"
        },
        {
            "children" : [
                2
            ],
            "name" : "Sphere.001",
            "rotation" : [
                -0.5,
                0.4999999403953552,
                -0.5,
                0.5000000596046448
            ],
            "scale" : [
                100,
                100,
                100
            ]
        },
        {
            "children" : [
                1,
                3
            ],
            "name" : "RootNode"
        },
        {
            "children" : [
                4
            ],
            "name" : "613f2cf3821244edad0b62a9a8e05ebc.fbx",
            "rotation" : [
                0.7071068286895752,
                0,
                0,
                0.7071068286895752
            ],
            "scale" : [
                0.009999999776482582,
                0.009999999776482582,
                0.009999999776482582
            ]
        },
        {
            "children" : [
                5
            ],
            "name" : "Sketchfab_model",
            "rotation" : [
                -0.7071068286895752,
                0,
                0,
                0.7071068286895752
            ],
            "scale" : [
                0.293193519115448,
                0.293193519115448,
                0.293193519115448
            ]
        },
        {
            "name" : "Light",
            "rotation" : [
                0.16907575726509094,
                0.7558803558349609,
                -0.27217137813568115,
                0.570947527885437
            ],
            "translation" : [
                4.076245307922363,
                5.903861999511719,
                -1.0054539442062378
            ]
        },
        {
            "name" : "Camera",
            "rotation" : [
                0.483536034822464,
                0.33687159419059753,
                -0.20870360732078552,
                0.7804827094078064
            ],
            "translation" : [
                7.358891487121582,
                4.958309173583984,
                6.925790786743164
            ]
        }
    ],
    "materials" : [
        {
            "doubleSided" : true,
            "emissiveFactor" : [
                0,
                0,
                0
            ],
            "name" : "Material.001",
            "pbrMetallicRoughness" : {
                "baseColorFactor" : [
                    0.6094710230827332,
                    1,
                    0.06030289828777313,
                    1
                ],
                "metallicFactor" : 0,
                "roughnessFactor" : 0.8308566212654114
            }
        },
        {
            "doubleSided" : true,
            "emissiveFactor" : [
                0,
                0,
                0
            ],
            "name" : "Material.002",
            "pbrMetallicRoughness" : {
                "baseColorFactor" : [
                    0.8741016983985901,
                    0.8741016983985901,
                    0.8741016983985901,
                    1
                ],
                "metallicFactor" : 0,
                "roughnessFactor" : 0.20304518938064575
            }
        }
    ],
    "meshes" : [
        {
            "name" : "Sphere_Material.001_0",
            "primitives" : [
                {
                    "attributes" : {
                        "POSITION" : 0,
                        "NORMAL" : 1,
                        "TEXCOORD_0" : 2
                    },
                    "indices" : 3,
                    "material" : 0
                }
            ]
        },
        {
            "name" : "Sphere.001_Material.002_0",
            "primitives" : [
                {
                    "attributes" : {
                        "POSITION" : 4,
                        "NORMAL" : 5,
                        "TEXCOORD_0" : 6
                    },
                    "indices" : 7,
                    "material" : 1
                }
            ]
        }
    ],
    "accessors" : [
        {
            "bufferView" : 0,
            "componentType" : 5126,
            "count" : 3468,
            "max" : [
                0.9959787130355835,
                0.9872310161590576,
                0.9959785342216492
            ],
            "min" : [
                -0.9959785342216492,
                -0.9872314929962158,
                -0.9959784150123596
            ],
            "type" : "VEC3"
        },
        {
            "bufferView" : 1,
            "componentType" : 5126,
            "count" : 3468,
            "type" : "VEC3"
        },
        {
            "bufferView" : 2,
            "componentType" : 5126,
            "count" : 3468,
            "type" : "VEC2"
        },
        {
            "bufferView" : 3,
            "componentType" : 5123,
            "count" : 14976,
            "type" : "SCALAR"
        },
        {
            "bufferView" : 4,
            "componentType" : 5126,
            "count" : 439,
            "max" : [
                0.7246001362800598,
                0.7199251651763916,
                0.724600076675415
            ],
            "min" : [
                -0.724600076675415,
                -0.7199255228042603,
                -0.724600076675415
            ],
            "type" : "VEC3"
        },
        {
            "bufferView" : 5,
            "componentType" : 5126,
            "count" : 439,
            "type" : "VEC3"
        },
        {
            "bufferView" : 6,
            "componentType" : 5126,
            "count" : 439,
            "type" : "VEC2"
        },
        {
            "bufferView" : 7,
            "componentType" : 5123,
            "count" : 1536,
            "type" : "SCALAR"
        }
    ],
    "bufferViews" : [
        {
            "buffer" : 0,
            "byteLength" : 41616,
            "byteOffset" : 0
        },
        {
            "buffer" : 0,
            "byteLength" : 41616,
            "byteOffset" : 41616
        },
        {
            "buffer" : 0,
            "byteLength" : 27744,
            "byteOffset" : 83232
        },
        {
            "buffer" : 0,
            "byteLength" : 29952,
            "byteOffset" : 110976
        },
        {
            "buffer" : 0,
            "byteLength" : 5268,
            "byteOffset" : 140928
        },
        {
            "buffer" : 0,
            "byteLength" : 5268,
            "byteOffset" : 146196
        },
        {
            "buffer" : 0,
            "byteLength" : 3512,
            "byteOffset" : 151464
        },
        {
            "buffer" : 0,
            "byteLength" : 3072,
            "byteOffset" : 154976
        }
    ],
    "buffers" : [
        {
            "byteLength" : 158048,
            "uri" : "data:application/octet-stream;base64,"
        }
    ]
}
