{
    "asset" : {
        "generator" : "Khronos glTF Blender I/O v1.8.19",
        "version" : "2.0"
    },
    "scene" : 0,
    "scenes" : [
        {
            "name" : "Scene",
            "nodes" : [
                0
            ]
        }
    ],
    "nodes" : [
        {
            "mesh" : 0,
            "name" : "Text",
            "rotation" : [
                0.7071068286895752,
                0,
                0,
                0.7071068286895752
            ]
        }
    ],
    "meshes" : [
        {
            "name" : "Text",
            "primitives" : [
                {
                    "attributes" : {
                        "POSITION" : 0,
                        "NORMAL" : 1
                    },
                    "indices" : 2
                }
            ]
        }
    ],
    "accessors" : [
        {
            "bufferView" : 0,
            "componentType" : 5126,
            "count" : 7672,
            "max" : [
                0.23802892863750458,
                0.12695108354091644,
                0.04212146997451782
            ],
            "min" : [
                -0.22407783567905426,
                -0.12406362593173981,
                -0.5370062589645386
            ],
            "type" : "VEC3"
        },
        {
            "bufferView" : 1,
            "componentType" : 5126,
            "count" : 7672,
            "type" : "VEC3"
        },
        {
            "bufferView" : 2,
            "componentType" : 5123,
            "count" : 25200,
            "type" : "SCALAR"
        }
    ],
    "bufferViews" : [
        {
            "buffer" : 0,
            "byteLength" : 92064,
            "byteOffset" : 0
        },
        {
            "buffer" : 0,
            "byteLength" : 92064,
            "byteOffset" : 92064
        },
        {
            "buffer" : 0,
            "byteLength" : 50400,
            "byteOffset" : 184128
        }
    ],
    "buffers" : [
        {
            "byteLength" : 234528,
            "uri" : "scene.bin"
        }
    ]
}
